<?xml version="1.0" encoding="UTF-8" standalone="no"?>
<!-- Created with Inkscape (http://www.inkscape.org/) -->

<svg
   version="1.1"
   id="svg1"
   width="2158"
   height="2160"
   viewBox="0 0 2158 2160"
   sodipodi:docname="Logo ReVira Manaus - Copia2.svg"
   inkscape:version="1.4 (86a8ad7, 2024-10-11)"
   xmlns:inkscape="http://www.inkscape.org/namespaces/inkscape"
   xmlns:sodipodi="http://sodipodi.sourceforge.net/DTD/sodipodi-0.dtd"
   xmlns="http://www.w3.org/2000/svg"
   xmlns:svg="http://www.w3.org/2000/svg">
  <defs
     id="defs1" />
  <sodipodi:namedview
     id="namedview1"
     pagecolor="#ffffff"
     bordercolor="#000000"
     borderopacity="0.25"
     inkscape:showpageshadow="2"
     inkscape:pageopacity="0.0"
     inkscape:pagecheckerboard="0"
     inkscape:deskcolor="#d1d1d1"
     inkscape:zoom="0.24606117"
     inkscape:cx="1168.4087"
     inkscape:cy="1079"
     inkscape:window-width="1366"
     inkscape:window-height="705"
     inkscape:window-x="-8"
     inkscape:window-y="-8"
     inkscape:window-maximized="1"
     inkscape:current-layer="g1" />
  <g
     inkscape:groupmode="layer"
     inkscape:label="Image"
     id="g1">
    <g
       id="g2">
      <path
         style="fill:#58814a"
         d="m 1751.3745,1829.5087 c -18.5825,-4.0417 -33.1964,-18.1019 -37.9689,-36.5303 -2.4321,-9.3915 -3.3589,-96.3937 -1.0597,-99.4784 1.2706,-1.7047 2.8919,-2.0507 10.9791,-2.3433 14.6059,-0.5286 13.2674,-5.3413 13.9103,50.0153 l 0.5398,46.4764 2.6512,5.6043 c 8.1459,17.2189 39.2951,21.1211 53.6901,6.7261 8.1885,-8.1885 8.2624,-8.6972 8.5635,-58.9788 0.1433,-23.925 0.274,-44.2554 0.2903,-45.1786 0.016,-0.9232 0.7975,-2.4463 1.7359,-3.3846 1.4506,-1.4507 3.0467,-1.6193 10.6597,-1.1261 6.2539,0.4052 9.4331,1.061 10.5439,2.1748 1.4053,1.4092 1.5857,6.5635 1.5512,44.3046 -0.035,38.3461 -0.2327,43.5273 -1.9333,50.7099 -1.0418,4.4 -2.4583,9.3802 -3.1479,11.0671 -1.5546,3.8032 -9.0875,13.8642 -13.5471,18.0935 -5.0653,4.8038 -15.804,10.2265 -23.4665,11.85 -8.4457,1.7893 -25.7604,1.7884 -33.9916,-0 z m 154.1255,0.8354 c -11.9167,-1.4149 -23.4914,-4.7559 -33,-9.5251 -10.4506,-5.2418 -11.3121,-7.108 -7.1891,-15.5739 3.5414,-7.272 5.0151,-9.2451 6.905,-9.2451 0.9542,0 5.9084,2.2183 11.0095,4.9295 11.3131,6.0129 18.9511,8.0705 29.9588,8.0705 20.2874,0 29.5165,-6.6541 28.6261,-20.639 -0.3358,-5.2723 -0.8729,-6.8169 -3.2242,-9.2711 -3.901,-4.0718 -11.5379,-7.1328 -21.5861,-8.6522 -22.9998,-3.4776 -36.6218,-8.1261 -43.257,-14.7614 -1.9846,-1.9846 -5.0327,-6.5927 -6.7735,-10.2402 -2.8411,-5.9529 -3.1683,-7.5864 -3.1967,-15.9588 -0.028,-8.3798 0.2839,-10.0013 3.0757,-15.9672 8.1395,-17.3937 27.291,-26.5248 52.8945,-25.219 11.6984,0.5966 23.1328,3.1947 32.4367,7.37 6.3781,2.8624 8.8203,5.3955 8.8203,9.1489 0,3.0191 -6.5504,14.8035 -8.6836,15.6221 -0.8893,0.3412 -3.6867,-0.4558 -6.2166,-1.7712 -13.5763,-7.0587 -31.7852,-10.4088 -41.6156,-7.6565 -5.7129,1.5995 -11.9305,6.0242 -13.9483,9.9262 -2.4515,4.7406 -2.0081,12.3548 0.9223,15.8374 3.6499,4.3377 12.9829,8.0416 27.2945,10.8322 15.6926,3.0599 20.3832,4.4222 27.3207,7.9346 24.9309,12.6223 29.4064,39.4714 10.0985,60.5831 -10.2991,11.2614 -29.7205,16.7139 -50.6719,14.2262 z m -541.1009,-1.2558 c -3.9055,-0.3236 -7.7906,-1.1625 -8.6337,-1.8642 -0.8431,-0.7018 -2.998,-4.9768 -4.7888,-9.5 -5.7617,-14.5532 -6.8848,-16.4964 -10.2025,-17.653 -1.9086,-0.6653 -13.9601,-1.0711 -31.8125,-1.0711 -25.9181,0 -28.9428,0.1718 -30.805,1.75 -1.1358,0.9625 -4.1479,6.925 -6.6936,13.25 -2.5457,6.325 -5.3361,12.2875 -6.2008,13.25 -1.3012,1.4484 -3.3209,1.75 -11.7172,1.75 -10.1551,0 -12.545,-0.7244 -12.545,-3.8026 0,-1.7181 7.2562,-18.429 18.9741,-43.6974 4.8461,-10.45 11.1742,-24.175 14.0625,-30.5 27.244,-59.6608 26.8016,-58.7915 30.5499,-60.0285 1.9986,-0.6596 5.742,-0.8074 9.5475,-0.3768 7.5638,0.8557 9.8451,2.7871 12.3634,10.4669 0.9808,2.9911 6.0394,14.8884 11.2414,26.4384 5.2019,11.55 10.7273,24.15 12.2786,28 1.5514,3.85 4.5988,10.825 6.772,15.5 2.1733,4.675 6.7526,15.25 10.1762,23.5 3.4237,8.25 7.0702,16.8619 8.1034,19.1375 1.0332,2.2757 2.4449,6.2552 3.1372,8.8435 1.1527,4.3099 1.0967,4.8243 -0.6649,6.1125 -1.058,0.7736 -2.8501,1.3337 -3.9824,1.2448 -1.1324,-0.089 -5.2543,-0.4264 -9.1598,-0.75 z M 1333,1776.012 c 0,-2.483 -12.8359,-34.7504 -17.5377,-44.0869 -3.4916,-6.9334 -4.6579,-8.0125 -6.1332,-5.6751 -1.3713,2.1726 -7.3235,15.7632 -13.0295,29.75 -3.029,7.425 -6.1681,14.7781 -6.9758,16.3403 -2.8706,5.5521 -2.4591,5.6597 21.6448,5.6597 21.3206,0 22.0314,-0.064 22.0314,-1.988 z m 341.8516,53.0439 c -4.2066,-0.3533 -8.335,-1.2122 -9.1742,-1.9087 -1.5867,-1.3168 -5.8223,-9.6732 -9.7051,-19.1472 -3.8799,-9.4667 -2.0379,-9 -35.518,-9 -16.1282,0 -30.4161,0.4152 -31.7508,0.9226 -1.8864,0.7172 -3.3482,3.2436 -6.5651,11.3461 -2.2761,5.7329 -4.1384,10.9027 -4.1384,11.4885 0,0.5858 -1.434,2.2717 -3.1867,3.7464 -3.0145,2.5365 -3.6604,2.6629 -11.9511,2.3389 -5.1115,-0.1997 -9.2716,-0.8501 -9.9813,-1.5604 -1.3714,-1.3728 -0.303,-6.2814 3.1087,-14.2821 1.0554,-2.475 3.0106,-7.2 4.3448,-10.5 1.3343,-3.3 5.2183,-12.3 8.6313,-20 3.413,-7.7 12.0693,-27.5 19.2363,-44 15.3893,-35.4293 20.0968,-45.0544 22.7233,-46.46 2.5163,-1.3467 15.63,-1.3484 18.1451,-0 2.2846,1.2227 5.7993,7.9948 12.6956,24.4623 2.764,6.6 6.3636,15.15 7.9992,19 3.2635,7.6822 18.1641,41.0429 23.1142,51.75 7.8992,17.0862 9.5481,20.7714 12.7263,28.4434 1.8669,4.5064 3.3943,9.103 3.3943,10.2148 0,2.0664 -2.8223,4.2118 -5.1843,3.9409 -0.7236,-0.083 -4.7575,-0.44 -8.9641,-0.7932 z m -33.2462,-52.47 c 0.2985,-0.7777 -1.6941,-6.7402 -4.4278,-13.25 -2.7338,-6.5097 -7.4692,-17.9109 -10.5231,-25.3359 -3.0539,-7.425 -6.1823,-13.6324 -6.9519,-13.7941 -1.5004,-0.3154 -1.97,0.6599 -12.4194,25.7941 -8.4482,20.3208 -10.4607,25.9038 -9.7512,27.0518 0.3399,0.55 9.6045,0.9482 22.0584,0.9482 17.5842,0 21.5706,-0.2561 22.015,-1.4141 z M 185,1828.2906 c -0.825,-0.3034 -2.2875,-1.2376 -3.25,-2.0761 -1.63322,-1.4227 -1.75,-5.8802 -1.75,-66.7981 0,-54.9625 0.22365,-65.4972 1.41581,-66.6894 1.11713,-1.1171 7.18218,-1.5557 28.75,-2.0792 31.08103,-0.7544 47.27805,0.2303 56.32497,3.4241 19.15364,6.7618 31.23731,24.7495 30.3597,45.1932 -0.30077,7.0065 -0.89507,9.3537 -3.98394,15.7349 -4.19822,8.673 -11.88027,17.6459 -18.35669,21.4414 -2.48042,1.4536 -4.50985,3.3313 -4.50985,4.1727 0,2.2839 14.7113,26.8591 23.21826,38.7859 5.58976,7.837 2.97816,10.092 -10.84994,9.3687 -6.26817,-0.3278 -10.10749,-1.023 -11.80956,-2.1382 -2.6647,-1.746 -9.46485,-11.5184 -21.46031,-30.8403 -3.99834,-6.4404 -8.01867,-11.9287 -8.93408,-12.1962 -0.9154,-0.2676 -8.99084,-0.6232 -17.94541,-0.7902 -13.61255,-0.254 -16.43733,-0.058 -17.23468,1.1962 -0.52454,0.8251 -0.96054,10.8209 -0.96897,22.2148 -0.0144,19.4482 -0.13358,20.7781 -1.94957,21.75 -1.99473,1.0676 -14.4041,1.3044 -17.06574,0.3258 z m 69.81692,-67.3448 c 10.44443,-2.2399 15.39408,-9.8771 15.57397,-24.0304 0.10155,-7.9901 -0.0978,-8.8832 -2.87969,-12.8983 -4.73651,-6.8363 -12.00158,-11.0744 -20.71468,-12.0839 -10.27503,-1.1905 -40.54048,-1.1565 -41.28389,0.046 -0.60194,0.9739 -0.92238,19.7073 -0.65341,38.199 0.20277,13.9403 -1.09922,13.266 24.15191,12.5083 11.31038,-0.3393 22.92299,-1.1228 25.80579,-1.7411 z m 81.04386,66.1384 -2.36078,-1.9159 0.16288,-65.6267 c 0.11249,-45.3199 0.49727,-66.0296 1.24354,-66.9288 0.84365,-1.0166 11.33502,-1.456 47.83712,-2.0038 50.76668,-0.7618 52.67611,-0.6118 53.69533,4.2169 0.79389,3.7612 -0.90101,13.2195 -2.55681,14.2682 -0.76013,0.4814 -10.15706,0.9041 -20.88206,0.9393 -23.77134,0.078 -51.07762,0.8965 -52.1563,1.5632 -0.43632,0.2697 -0.73346,8.3839 -0.66031,18.0317 l 0.133,17.5415 2.5837,0.9823 c 1.54942,0.5891 14.33406,0.8586 31.93672,0.6732 l 29.35301,-0.3091 2.02488,2.4919 c 1.75072,2.1545 1.9469,3.4289 1.44898,9.4123 -0.35649,4.2839 -1.17112,7.5156 -2.1383,8.4828 -1.34862,1.3486 -5.80661,1.5648 -32.57761,1.5796 -26.46686,0.015 -31.15465,0.2372 -31.96617,1.5172 -0.52303,0.825 -0.95787,8.5015 -0.96629,17.0589 -0.0117,11.8818 0.32029,16.0176 1.40471,17.5 1.36744,1.8692 2.70082,1.9276 36.00267,1.5778 42.13896,-0.4426 40.19475,-0.9693 39.21481,10.6234 -0.35028,4.1438 -1.14211,8.143 -1.75963,8.8871 -0.91505,1.1025 -9.95943,1.3528 -48.88953,1.3528 -45.5792,0 -47.87489,-0.088 -50.12756,-1.9158 z m 180.67142,0.3051 C 514.78343,1825.6406 510,1816.6559 510,1815.12 c 0,-0.5206 -4.77902,-11.6731 -10.62004,-24.7833 -5.84103,-13.1102 -12.14409,-27.4367 -14.0068,-31.8367 -1.86271,-4.4 -4.01757,-9.125 -4.78857,-10.5 -0.771,-1.375 -3.27171,-7.1937 -5.55713,-12.9305 -2.28542,-5.7368 -6.82654,-16.5982 -10.09138,-24.1364 C 461.67124,1703.3949 459,1696.292 459,1695.1488 c 0,-3.1496 3.01323,-4.1488 12.51118,-4.1488 8.10174,0 8.81305,0.1721 11.36498,2.75 1.49727,1.5125 4.6938,7.475 7.1034,13.25 2.4096,5.775 7.4928,17.7 11.29599,26.5 3.80319,8.8 10.07432,23.875 13.93584,33.5 10.1104,25.2006 10.0236,25 10.81804,25 1.4192,0 2.89375,-2.668 5.54599,-10.0349 1.4782,-4.1058 4.02345,-10.3901 5.65612,-13.9651 3.21609,-7.0422 8.93589,-19.7068 16.03311,-35.5 2.47161,-5.5 6.85961,-15.625 9.75111,-22.5 2.8915,-6.875 6.30709,-13.9144 7.5902,-15.6432 2.16876,-2.9221 2.88041,-3.1885 10.11348,-3.7867 10.35207,-0.8562 16.67974,0.2796 17.08205,3.0661 0.16582,1.1485 -2.79183,8.3377 -6.57257,15.976 -9.30362,18.7963 -28.28651,59.1703 -34.7403,73.8878 -14.70957,33.5444 -18.7711,42.1478 -20.65382,43.75 -2.84129,2.418 -16.92231,2.5196 -19.3026,0.1393 z m 112.32858,-0.3003 -2.36078,-1.911 -0.31779,-59.839 c -0.17479,-32.9115 -0.0253,-62.2385 0.33223,-65.1712 0.98314,-8.0649 2.59686,-9.1678 13.41413,-9.1678 6.78355,0 9.3061,0.3775 10.5,1.5714 1.39644,1.3965 1.57143,8.8326 1.57143,66.7775 0,57.3981 -0.1864,65.4722 -1.5567,67.4286 -1.40886,2.0114 -2.39557,2.2225 -10.38922,2.2225 -7.20519,0 -9.26747,-0.3521 -11.1933,-1.911 z m 70.7846,0.641 c -1.60886,-1.1765 -1.7778,-6.1385 -2.29227,-67.3275 -0.51173,-60.8637 -0.42389,-66.1889 1.11717,-67.7299 1.501,-1.501 5.33669,-1.6726 37.39105,-1.6726 28.43491,0 36.88628,0.3042 41.44537,1.4917 20.91945,5.4488 33.6933,22.5124 33.6933,45.0083 0,14.6313 -5.25997,25.6394 -16.67898,34.9056 -4.94502,4.0128 -6.2825,5.6836 -6.29947,7.8694 -0.0323,4.1526 7.02858,17.4482 21.00436,39.5512 4.71139,7.4511 3.81677,8.5786 -7.13131,8.9869 -12.014,0.4481 -14.77346,-0.6163 -19.596,-7.559 -4.20864,-6.0588 -12.16474,-19.4755 -16.32856,-27.5354 -5.61428,-10.8676 -7.35985,-11.6028 -27.72004,-11.6751 -17.19028,-0.061 -16.25,-1.4441 -16.25,23.8997 0,19.4752 -0.0522,19.9798 -2.22251,21.5 -2.81659,1.9728 -17.53946,2.1825 -20.13211,0.2867 z m 71.63615,-67.8146 c 5.13712,-1.3713 12.21709,-8.3509 13.60843,-13.4154 1.38904,-5.0562 1.41247,-13.8708 0.0499,-18.7773 -1.47024,-5.2943 -6.0194,-10.0704 -12.18259,-12.7902 -4.83399,-2.1332 -6.96925,-2.3537 -26.51997,-2.7382 -16.35761,-0.3217 -21.62012,-0.1215 -22.81208,0.8678 -2.23469,1.8546 -1.72089,44.6768 0.56912,47.4331 1.3862,1.6684 3.01445,1.749 22.5,1.1141 11.55311,-0.3765 22.70734,-1.1387 24.78718,-1.6939 z M 838.2,1827.8 c -0.66,-0.66 -1.2,-2.001 -1.2,-2.9799 0,-2.4757 6.5343,-18.6228 14.50157,-35.8352 6.19477,-13.3832 15.16224,-33.1984 30.99314,-68.4849 3.45452,-7.7 7.49574,-16.7 8.98048,-20 4.18375,-9.2988 4.48994,-9.5 14.45729,-9.5 9.89246,0 11.89168,0.9333 14.303,6.6774 0.88259,2.1024 3.28345,7.8726 5.33525,12.8226 2.0518,4.95 7.53932,17.1 12.19449,27 11.46892,24.3906 13.48844,28.8618 16.71191,37 1.52495,3.85 5.12683,11.95 8.00417,18 6.50518,13.678 7.86929,16.7249 10.29734,23 4.73557,12.2388 3.96155,13.5 -8.28497,13.5 -11.07591,0 -13.12413,-0.8827 -15.65308,-6.7459 -5.14639,-11.9316 -9.7447,-21.0768 -10.98225,-21.8417 -1.45234,-0.8975 -60.15339,-0.7001 -63.16817,0.2125 -1.1007,0.3332 -4.35575,5.6964 -8.30755,13.688 -3.57375,7.2271 -7.03432,13.4814 -7.69017,13.8983 -1.99777,1.2702 -19.15539,0.9259 -20.49245,-0.4112 z m 90.38272,-51.155 c 1.10532,-2.8804 -19.84937,-51.645 -22.19246,-51.645 -1.61227,0 -15.87686,30.7456 -21.39948,46.124 -2.48372,6.9162 -2.60956,6.876 21.50922,6.876 17.21857,0 21.66752,-0.273 22.08272,-1.355 z m 142.97398,50.1325 C 1070.1868,1824.8217 1070,1816.8088 1070,1760 c 0,-74.6095 -0.7588,-69 9.3342,-69 4.0796,0 7.0057,0.5498 8.5013,1.5973 3.591,2.5152 14.3845,19.6516 25.7357,40.8593 2.6367,4.9262 6.9752,12.8012 9.6413,17.5 2.666,4.6989 7.1637,13.1735 9.9948,18.8326 3.6092,7.2142 5.614,10.1993 6.7085,9.9885 0.8585,-0.1653 5.3021,-7.2704 9.8748,-15.7891 4.5727,-8.5188 11.0767,-20.4386 14.4534,-26.4886 3.3766,-6.05 7.4419,-13.7 9.0339,-17 1.592,-3.3 5.5969,-10.8078 8.8998,-16.684 6.6129,-11.7653 7.992,-12.816 16.8223,-12.816 6.3422,0 10.6691,1.639 11.3862,4.3129 1.0116,3.7722 0.6615,130.0632 -0.365,131.6871 -1.2701,2.0091 -20.2431,2.1788 -22.2212,0.1988 -1.0179,-1.0189 -1.3163,-9.4818 -1.3753,-39 -0.041,-20.7344 -0.1539,-38.4863 -0.25,-39.4488 -0.4103,-4.1097 -3.2791,-1.0765 -8.0392,8.5 -14.6975,29.5682 -30.0821,56.6076 -33.5604,58.9847 -6.3462,4.3369 -15.6201,-7.3896 -32.5611,-41.1726 -9.0389,-18.0249 -14.7437,-27.3187 -16.4252,-26.7586 -0.7541,0.2512 -1.1693,12.3 -1.3507,39.1915 -0.1796,26.6312 -0.6108,39.2491 -1.3724,40.1669 -0.7821,0.9423 -3.8673,1.3381 -10.4314,1.3381 -8.4983,0 -9.4583,-0.1961 -10.8776,-2.2225 z m 339.6788,1.186 c -1.2455,-0.5004 -2.708,-2.0762 -3.25,-3.5018 -1.2575,-3.3072 -1.2891,-122.4473 -0.034,-127.858 0.4971,-2.1429 1.4989,-4.2982 2.2262,-4.7895 0.7273,-0.4912 4.8703,-0.7568 9.2068,-0.5901 l 7.8844,0.3029 3.8495,4.4865 c 2.1172,2.4676 9.3932,11.9115 16.1688,20.9865 6.7756,9.075 15.1358,20.1 18.5782,24.5 9.2036,11.7639 18.9948,24.9562 25.0489,33.75 2.9345,4.2625 5.9407,7.75 6.6804,7.75 1.1018,0 1.3955,-7.9446 1.6251,-43.9651 0.3292,-51.6531 -0.7706,-47.3424 12.2169,-47.8835 7.4539,-0.3105 8.5973,-0.1174 10.4857,1.771 l 2.1195,2.1195 -0.271,66.0158 c -0.2355,57.3929 -0.4668,66.1396 -1.7709,66.9637 -2.8159,1.7795 -15.2055,1.1507 -18.6445,-0.9463 -3.7238,-2.2706 -10.3622,-10.483 -23.9067,-29.5751 -5.4627,-7.7 -12.8608,-17.7656 -16.4404,-22.3679 -3.5796,-4.6024 -11.4767,-14.9524 -17.5492,-23 -6.0724,-8.0477 -11.6974,-14.6321 -12.5,-14.6321 -1.2621,0 -1.415,6.0352 -1.1317,44.6733 0.3219,43.907 0.293,44.6918 -1.6843,45.75 -2.4152,1.2926 -15.7199,1.3209 -18.9077,0.04 z m -312.5972,-250.7397 c -0.7209,-1.1665 1.7559,-10.6592 5.2767,-20.2238 1.7209,-4.675 5.7691,-16.15 8.9961,-25.5 7.7008,-22.3126 10.9821,-30.9164 16.3994,-43 4.0608,-9.0578 13.4541,-28.6481 15.619,-32.5744 17.0885,-30.9915 36.3088,-60.4745 52.8854,-81.1236 30.5489,-38.0543 68.2787,-73.6388 105.1851,-99.2045 22.1783,-15.3633 44.3531,-28.7836 63.5,-38.4306 45.7798,-23.0657 81.6582,-36.6768 134.5,-51.0251 11.132,-3.0227 47.3138,-10.1381 51.6954,-10.1662 2.0926,-0.014 5.8296,-0.4995 8.3046,-1.08 10.6057,-2.4875 65.686,-6.6726 70.8728,-5.3849 2.1077,0.5232 2.3064,0.9974 1.7793,4.246 -1.1042,6.8042 -22.3206,47.6341 -37.3607,71.8986 -4.4848,7.2355 -9.1468,15.101 -10.3599,17.479 -5.2543,10.2993 -30.7388,46.9441 -52.0991,74.9146 -19.5133,25.552 -34.1002,42.1596 -54.0731,61.564 -39.544,38.4182 -66.4907,58.8064 -108.7593,82.2883 -10.3123,5.7289 -36.8359,18.1551 -44.5,20.8481 -36.6999,12.8956 -68.1592,19.0293 -111.5,21.7398 -36.7632,2.2991 -58.0667,8.3884 -80.3746,22.9743 -8.7707,5.7346 -11.8772,8.5583 -24.0596,21.8695 -7.1774,7.8426 -10.5702,10.0871 -11.9275,7.8909 z m -64.5305,-11.2257 c -9.7848,-10.6699 -26.0281,-22.0282 -40.36496,-28.2256 -13.56482,-5.8637 -32.55959,-10.4767 -52.24284,-12.6873 -5.5,-0.6178 -18.1,-2.0318 -28,-3.1424 -32.68194,-3.6662 -76.99203,-14.154 -97,-22.9592 -2.2,-0.9682 -7.6,-3.1898 -12,-4.937 -11.02835,-4.3792 -32.5442,-15.6406 -45.33638,-23.7291 -41.65134,-26.3361 -87.43353,-69.0609 -125.18806,-116.828 -13.13379,-16.6169 -25.24941,-33.3808 -45.52363,-62.9895 -14.36686,-20.9815 -48.54098,-82.2037 -60.132,-107.7252 -6.85081,-15.0843 -7.40934,-14.7811 22.68007,-12.3117 40.37161,3.3133 83.6619,11.1395 117,21.1519 6.325,1.8996 15.325,4.6084 20,6.0196 18.2439,5.5071 34.0681,10.8642 47,15.9113 16.00346,6.246 49.98939,21.6013 53.81105,24.3125 1.47892,1.0493 4.93895,2.9586 7.68895,4.243 13.27357,6.1994 39.44722,22.3383 59.13028,36.4603 20.09329,14.4162 37.97126,29.8265 58.00508,49.9985 52.72405,53.0879 84.61541,102.0951 107.65954,165.4398 5.2456,14.4192 16.6211,50.1226 19.7539,62 0.6528,2.475 2.0289,7.16 3.0579,10.411 1.3935,4.4028 1.5874,6.2527 0.7597,7.25 -0.6112,0.7365 -1.4245,1.339 -1.8073,1.339 -0.3829,0 -4.4109,-4.0508 -8.9513,-9.0019 z m 61.0684,-79.2219 c -0.8233,-0.8233 -1.1762,-7.1842 -1.1762,-21.1994 0,-11.0128 -0.4485,-27.2353 -0.9967,-36.05 -0.5481,-8.8148 -1.4715,-40.5518 -2.0519,-70.5268 -0.5805,-29.975 -1.7091,-70.475 -2.5081,-90 -0.7989,-19.525 -1.87,-61.375 -2.3801,-93 -0.5102,-31.625 -1.1979,-62.1219 -1.5283,-67.7709 -0.3579,-6.1194 -0.172,-11.8631 0.4599,-14.2099 0.9301,-3.4542 1.5089,-4.0231 4.7024,-4.6222 4.3317,-0.8126 23.4179,0.156 29.5065,1.4974 19.6101,4.3206 24.1031,5.5334 25.9054,6.9929 2.0197,1.6354 2.0392,2.0175 0.9294,18.1416 -1.7859,25.9483 -2.5076,78.6938 -1.1446,83.6589 1.6933,6.1678 8.2456,13.9817 12.845,15.318 2.4093,0.7 12.7381,0.9852 28.7375,0.7935 l 24.9765,-0.2993 0.9109,-2.5915 c 1.5241,-4.3366 -0.1373,-11.3242 -3.848,-16.1841 -2.4397,-3.1951 -5.7083,-5.6396 -11.7006,-8.7506 -13.2505,-6.879 -13.7273,-8.4605 -7.8652,-26.0852 5.7079,-17.1609 10.8616,-27.3886 13.801,-27.3886 3.7413,0 49.9581,46.8021 63.8111,64.6191 14.9249,19.1958 14.7366,19.1097 42.1375,19.2763 18.2992,0.1113 20.0595,0.5558 18.9366,4.7814 -0.4484,1.6871 -4.6585,4.6939 -15.3768,10.9818 -8.1177,4.7623 -16.5594,9.5572 -18.7594,10.6554 -9.2344,4.6094 -38.4791,25.5966 -56.5,40.5465 -33.4162,27.7217 -66.1014,64.0824 -89.2967,99.3381 -19.9842,30.375 -31.0972,53.1005 -47.2077,96.5372 -2.0774,5.601 -3.6357,7.2241 -5.3194,5.5404 z M 1035.041,1445.75 c -17.1233,-43.0603 -50.18386,-91.02 -90.49369,-131.2758 -30.36442,-30.3238 -71.51828,-61.9105 -108.41652,-83.2128 -5.18299,-2.9923 -13.07023,-7.8043 -17.5272,-10.6933 -11.38286,-7.3786 -29.54792,-15.9942 -54.60359,-25.8983 -27.2316,-10.7642 -35.34368,-13.3519 -62.75296,-20.0179 -12.23913,-2.9766 -22.96459,-6.0025 -23.83434,-6.7244 -3.0626,-2.5417 -8.13492,-13.8065 -19.02682,-42.2553 -7.93746,-20.7321 -24.02617,-71.4503 -26.25789,-82.7756 -0.89454,-4.5395 -5.46023,-25.3358 -7.11247,-32.3966 -2.21604,-9.4702 -4.25552,-19.38669 -5.0388,-24.5 -8.44089,-55.10258 -10.49847,-79.50958 -10.41142,-123.5 0.0758,-38.2935 1.69677,-61.09053 7.07496,-99.5 2.32697,-16.61848 4.23192,-27.58466 6.34047,-36.5 0.52031,-2.2 2.34856,-10.525 4.06277,-18.5 1.71421,-7.975 3.53699,-15.85 4.05061,-17.5 1.74784,-5.61485 8.09112,-26.97732 9.94734,-33.5 3.07256,-10.7968 8.8339,-25.42711 10.49236,-26.64423 2.31176,-1.69656 4.48226,-0.82207 21.48304,8.6555 31.47777,17.54817 66.06731,40.32416 91.78126,60.43471 5.66395,4.42971 11.76172,9.17902 13.55059,10.55402 16.48504,12.67113 49.25639,41.86234 62.7908,55.93119 9.09721,9.45643 15.23281,15.06881 16.47361,15.06881 1.82846,0 2.25456,-2.01247 5.66382,-26.75 2.02763,-14.7125 4.60977,-31.7 5.73809,-37.75 1.12832,-6.05 2.71423,-15.05 3.52426,-20 2.80582,-17.14608 10.66274,-51.95286 15.57533,-69 7.40504,-25.69616 13.74998,-44.96506 20.90952,-63.5 2.65563,-6.875 6.84537,-17.72043 9.31054,-24.10095 6.29881,-16.30301 9.63674,-23.60072 21.22268,-46.39905 24.89053,-48.97857 31.86408,-60.85571 58.64634,-99.88474 13.27961,-19.35196 20.47451,-28.28017 42.79631,-53.10607 7.425,-8.25795 16.1425,-18.05077 19.3721,-21.76182 3.5427,-4.07067 6.6557,-6.74737 7.8474,-6.74737 3.6054,0 19.1646,17.67387 42.2805,48.02696 11.9866,15.73932 14.8637,19.66707 28.1819,38.47304 19.6929,27.80721 46.8324,75.2534 59.7747,104.5 1.582,3.575 4.569,10.1 6.6379,14.5 7.0263,14.94364 23.2503,57.84281 28.9634,76.58466 14.304,46.92393 24.8975,94.85982 31.9149,144.41534 0.793,5.59973 4.2051,27.16978 5.669,35.83701 0.3565,2.11036 1.252,4.06875 1.9901,4.35198 0.7956,0.30531 9.5913,-7.37073 21.605,-18.85493 39.9129,-38.15351 91.798,-79.14109 124.9192,-98.68219 21.3482,-12.59514 52.8317,-29.53064 58.8371,-31.64946 3.89,-1.37248 4.4957,-1.36992 6.0377,0.0255 3.7341,3.3793 19.4676,50.63362 25.9611,77.97206 1.6983,7.15 3.7867,15.925 4.6409,19.5 0.8542,3.575 1.9367,8.975 2.4056,12 0.4688,3.025 1.56,9.325 2.425,14 2.263,12.2321 4.5274,27.26817 5.4966,36.5 0.462,4.4 1.5284,14.075 2.3699,21.5 2.986,26.34796 4.144,60.71605 2.7993,83.08507 -1.7308,28.79463 -3.0247,45.37864 -4.1284,52.91493 -0.5236,3.575 -1.6754,11.45 -2.5597,17.5 -1.8311,12.52845 -7.8465,46.0228 -9.8777,55 -0.7466,3.3 -2.1115,9.5572 -3.033,13.9049 -2.8568,13.4789 -15.106,55.1198 -22.3843,76.0951 -8.6647,24.9708 -20.2531,55.286 -22.8023,59.6509 -2.1302,3.6473 -3.3147,4.1486 -24.3439,10.303 -22.1719,6.4887 -65.1785,20.6156 -76.8226,25.2348 -7.3685,2.923 -12.1397,4.2866 -13.6623,3.9044 -1.5649,-0.3927 -3.5564,-2.763 -6.014,-7.1575 -4.4,-7.868 -7.0063,-9.6137 -17.7925,-11.9173 -4.5147,-0.9643 -9.4915,-2.4878 -11.0595,-3.3858 -4.4697,-2.5595 -13.0927,-14.6677 -29.5384,-41.4771 -2.4141,-3.9355 -5.8916,-9.4959 -7.7278,-12.3565 -8.903,-13.8704 -25.9473,-50.1437 -29.3765,-62.5183 -2.5883,-9.3403 -2.5177,-13.1407 0.3592,-19.3187 3.5817,-7.6917 10.2366,-12.9486 20.544,-16.2284 8.1421,-2.5908 9.608,-2.7335 28.0904,-2.7335 18.4515,0 19.7538,0.1262 24.2207,2.3463 5.4069,2.6875 10.3206,7.7539 14.3333,14.7791 4.0425,7.0772 5.4036,8.3746 8.7853,8.3746 4.9067,0 10.9703,-3.6112 17.5246,-10.4368 l 6.1361,-6.3901 v -8.8865 c 0,-5.5785 0.4467,-9.3333 1.2,-10.0866 1.8686,-1.8686 5.4653,-1.427 10.5878,1.3 2.583,1.375 5.3749,2.497 6.2042,2.4934 2.3188,-0.01 6.772,-3.2904 9.6071,-7.0768 2.1329,-2.8486 2.4854,-4.217 2.1202,-8.2309 -0.4825,-5.3029 -6.6761,-18.61105 -14.0485,-30.1857 -2.4522,-3.85 -4.7898,-8.575 -5.1947,-10.5 -3.0551,-14.52494 -27.4408,-29.46502 -58.7736,-36.00809 -17.7307,-3.70261 -26.0206,-4.60725 -68.2025,-7.44269 -18.5776,-1.24878 -22.0095,-1.75833 -29.7512,-4.4174 -34.416,-11.821 -48.7148,-9.36258 -72.7488,12.50782 -5.225,4.75464 -11.075,9.3127 -13,10.12902 -7.8999,3.35004 -43.9249,5.83047 -47.9237,3.29967 -2.1929,-1.38791 -2.9059,-10.6326 -3.553,-46.06833 -0.5416,-29.65626 -1.6808,-58.70807 -4.6272,-118 -0.5876,-11.825 -1.4231,-30.05 -1.8565,-40.5 -0.4335,-10.45 -1.3034,-25.75 -1.9331,-34 -1.6177,-21.19356 -3.1269,-50.85441 -4.0778,-80.14159 -0.449,-13.82788 -1.08,-26.87788 -1.4023,-29 -0.3222,-2.12213 -1.0481,-14.43341 -1.613,-27.35841 -1.3696,-31.33906 -3.1466,-56 -4.0352,-56 -1.2632,0 -1.8871,6.77893 -3.452,37.50886 -0.84,16.49513 -1.9597,36.74114 -2.4883,44.99114 -0.5285,8.25 -1.215,23.43137 -1.5256,33.73638 -0.3105,10.305 -0.7518,19.305 -0.9805,20 -0.2288,0.69499 -0.89,11.61362 -1.4695,24.26362 -0.5795,12.65 -1.5003,31.775 -2.0463,42.5 -0.546,10.725 -1.465,30.975 -2.0424,45 -0.5773,14.025 -1.225,28.425 -1.4394,32 -0.2144,3.575 -1.0987,23.15 -1.965,43.5 -2.8831,67.72691 -4.701,98.92598 -5.9143,101.5 l -1.1783,2.5 -30.9883,0.61772 c -35.52804,0.70822 -44.95845,1.9825 -64.9883,8.78157 -12.65999,4.29739 -37.89696,16.39369 -48,23.00682 -15.66866,10.25621 -33.26625,28.58469 -46.17608,48.09389 -4.18543,6.325 -9.25014,13.975 -11.2549,17 -18.79927,28.3664 -32.41459,46.4806 -45.57024,60.6279 -8.61762,9.2671 -10.57807,10.8191 -18.80955,14.8901 -14.5347,7.1885 -23.6723,7.0158 -31.45622,-0.5944 -8.1845,-8.0019 -9.28128,-16.9559 -4.40033,-35.9236 8.77751,-34.1101 5.82381,-53.3684 -10.43168,-68.0149 -12.48395,-11.2483 -32.10241,-13.31706 -41.71299,-4.3987 -3.84281,3.5661 -4.81781,6.6121 -4.99796,15.6143 -0.19617,9.8027 1.10521,11.694 12.39205,18.0095 4.62984,2.5907 10.1054,6.2258 12.1679,8.078 4.46286,4.0079 4.76108,7.0048 1.86207,18.7118 -3.78052,15.2668 -4.58055,23.3795 -3.37595,34.2338 1.45647,13.1237 5.77619,22.3204 14.63998,31.1685 11.59584,11.5754 25.94518,16.4148 44.6239,15.0497 16.70636,-1.2209 31.32822,-8.0141 44.63818,-20.7385 8.88535,-8.4945 13.00877,-13.1402 31.06253,-34.9973 6.23136,-7.5441 22.11436,-29.424 33.50765,-46.159 0.48203,-0.708 1.07753,-0.6713 1.86381,0.115 0.87392,0.8739 0.12549,5.1356 -3.07185,17.4916 -2.32501,8.9849 -4.64753,18.1084 -5.16116,20.2745 -0.51362,2.1661 -2.81772,7.5661 -5.12022,12 -3.51068,6.7605 -6.67387,10.5984 -19.59826,23.7782 -8.47654,8.6441 -16.48148,17.2198 -17.78875,19.0571 -1.30728,1.8374 -3.32588,6.6899 -4.4858,10.7835 -1.88721,6.6604 -2.04558,9.0725 -1.50633,22.9429 0.65417,16.8263 2.19997,35.9746 3.14438,38.9502 0.89957,2.8343 2.95416,3.3067 16.56752,3.81 14.93572,0.5521 23.36996,-0.811 25.10757,-4.0578 0.63418,-1.185 1.18741,-6.0431 1.2294,-10.7958 0.0838,-9.4868 -0.67713,-11.2371 -5.88867,-13.5449 -6.46984,-2.865 -8.50762,-5.9987 -8.48355,-13.046 0.0446,-13.065 8.10609,-17.8298 45.13835,-26.6795 19.04675,-4.5516 34.40617,-11.7448 43.35031,-20.3019 2.39477,-2.2912 7.46818,-8.3662 11.27424,-13.5 17.01053,-22.9449 29.60735,-32.8582 47.22065,-37.1615 10.8205,-2.6436 16.2303,-3.0263 18.5,-1.3086 1.7702,1.3397 1.8277,1.6759 0.5,2.9267 -0.825,0.7773 -5.1896,2.8711 -9.6991,4.653 -10.65267,4.2094 -16.07025,7.7181 -22.7713,14.7478 -7.97636,8.3675 -10.99584,15.2631 -13.49063,30.8083 -2.8672,17.8658 -3.64807,20.5753 -9.19239,31.8961 -6.40594,13.0802 -6.40556,15.9085 0.003,19.7546 13.97155,8.3854 21.65927,14.3474 31.70057,24.5843 l 11.04981,11.265 6.4502,0.1153 c 3.5476,0.063 6.9002,0.22 7.4502,0.3477 0.55,0.1278 7.3967,0.3009 15.2148,0.3847 13.2636,0.1421 14.2889,0.2906 15.3211,2.2195 1.075,2.0086 0.1749,33.6437 -3.0569,107.4328 -1.7316,39.538 -2.979,84.616 -2.979,107.6556 0,11.9245 -0.2731,22.3926 -0.607,23.2626 -1.3922,3.6281 -3.3655,0.8713 -8.352,-11.6682 z m 1.2915,-259.6011 c -9.3893,-3.2447 -16.9085,-11.1468 -19.3957,-20.3835 -1.707,-6.3396 1.2864,-15.1054 12.8376,-37.5935 11.909,-23.1843 15.4058,-28.6719 18.2707,-28.6719 2.3895,0 2.4719,0.2532 3.093,9.5 1.2211,18.1803 0.9677,76.4942 -0.3381,77.8 -1.7248,1.7248 -8.4709,1.4212 -14.4675,-0.6511 z"
         id="path4" />
      <path
         style="fill:#003c2a"
         d="m 1752.1376,1827.4069 c -19.8521,-4.3441 -33.8591,-18.8215 -37.1589,-38.4069 -1.8373,-10.9047 -1.9965,-92.3716 -0.1841,-94.1902 0.7681,-0.7707 4.4785,-1.4436 9.1232,-1.6545 11.8793,-0.5395 11.0822,-3.8432 11.0822,45.9307 0,42.3101 0.4349,48.5934 3.8876,56.1606 5.7921,12.6947 26.24,19.1881 44.3886,14.0959 8.1285,-2.2808 15.7888,-9.2696 18.7924,-17.1452 2.0577,-5.3952 2.167,-7.2084 2.0609,-34.1973 -0.062,-15.675 0.1579,-36.2728 0.4877,-45.7729 0.5522,-15.9048 0.7578,-17.3574 2.5956,-18.341 2.7534,-1.4735 15.4078,-0.1226 17.3866,1.8561 1.3423,1.3423 1.4816,6.8836 1.1223,44.6452 -0.3888,40.8729 -0.5249,43.5022 -2.6179,50.6126 -5.5336,18.7981 -22.5155,34.0727 -41.1038,36.9713 -8.8196,1.3753 -22.1496,1.1234 -29.8624,-0.5644 z M 1904,1827.8746 c -4.125,-0.4762 -10.875,-1.8447 -15,-3.0411 -8.8706,-2.5729 -22.8536,-9.2883 -23.6474,-11.3569 -0.6878,-1.7925 2.4118,-9.5991 5.222,-13.1517 l 2.0746,-2.6227 6.9254,4.0912 c 14.5919,8.62 30.6293,11.7584 44.9511,8.7966 14.5215,-3.0031 20.0456,-9.4737 19.3033,-22.6106 -0.3536,-6.258 -0.718,-7.2696 -3.7421,-10.3898 -4.6055,-4.7516 -10.5305,-7.0497 -24.5869,-9.5364 -30.5203,-5.3993 -40.0672,-10.0705 -46.5622,-22.782 -2.1468,-4.2017 -2.4378,-6.0841 -2.4378,-15.7712 0,-9.5429 0.313,-11.6358 2.3632,-15.7996 5.0423,-10.2407 14.9953,-17.5408 28.7811,-21.1097 8.2653,-2.1398 29.3701,-2.1518 37.7114,-0.022 13.7634,3.5151 22.1704,7.3623 23.2039,10.6187 0.7217,2.2738 -5.4878,14.8121 -7.3356,14.8121 -0.7278,0 -2.5969,-0.6586 -4.1534,-1.4635 -1.5565,-0.8049 -4.7967,-2.1773 -7.2003,-3.0497 -12.4178,-4.5073 -14.5137,-4.9081 -25.8703,-4.9472 -10.3056,-0.035 -11.9155,0.2042 -15.5,2.3079 -8.7193,5.1171 -11.543,9.4335 -11.6429,17.7974 -0.048,4.0562 0.469,6.321 1.8793,8.2262 4.7178,6.3729 15.5585,10.8856 32.825,13.664 15.686,2.5242 25.5714,6.7177 33.7269,14.3077 12.6515,11.7742 14.1851,28.7826 3.9474,43.779 -8.0598,11.8061 -17.3239,17.1412 -33.5581,19.3256 -8.7362,1.1756 -10.9287,1.1682 -21.6776,-0.073 z m -1717.5,-1.5982 c -4.64552,-1.1419 -4.5,1.003 -4.5,-66.3274 0,-56.6723 0.17569,-63.9818 1.57143,-65.3776 1.36478,-1.3647 5.86882,-1.5704 34.25,-1.5638 17.97321,0 35.60357,0.4636 39.17857,1.0211 8.09847,1.2629 19.98495,6.9563 25.00617,11.9775 8.3404,8.3404 13.59814,22.3314 12.76165,33.9592 -0.92191,12.8151 -10.05166,27.0067 -23.01782,35.7795 -2.6125,1.7677 -4.75,3.9186 -4.75,4.78 0,1.8765 9.27308,17.4774 19.05111,32.0513 3.89004,5.798 6.92073,11.3028 6.73486,12.2328 -0.28861,1.4441 -1.64829,1.6802 -9.31196,1.6171 -5.18837,-0.043 -9.96558,-0.6076 -11.32456,-1.339 -2.074,-1.1163 -9.26969,-11.5969 -24.13914,-35.1589 -2.46934,-3.9129 -5.31964,-7.5586 -6.33402,-8.1014 -1.01438,-0.5429 -9.39017,-1.2424 -18.61286,-1.5544 C 200.38529,1779.5052 202,1777.6632 202,1804.3 c 0,14.4556 -0.34548,20.6455 -1.2,21.5 -1.17222,1.1722 -10.24017,1.4743 -14.3,0.4764 z m 64.80845,-62.3868 c 10.83836,-1.6734 14.25467,-4.0226 18.74437,-12.8896 2.71589,-5.3638 3.81191,-17.8498 2.03853,-23.2232 -2.73696,-8.2931 -12.56846,-15.894 -22.91125,-17.7132 -9.29833,-1.6355 -42.64798,-1.7501 -44.57213,-0.1532 -1.39898,1.161 -1.60797,4.5901 -1.60797,26.3833 0,21.9049 0.20772,25.2783 1.65499,26.8776 1.49214,1.6488 3.51507,1.8287 20.55844,1.8287 10.39691,0 22.13966,-0.4997 26.09502,-1.1104 z m 86.12858,61.688 c -1.77646,-1.299 -1.84435,-4.0483 -1.62099,-65.6438 0.1638,-45.1734 0.56191,-64.6843 1.33896,-65.6206 0.89848,-1.0826 10.03578,-1.2837 48.72543,-1.0728 L 433.5,1693.5 l 0.2936,6.0914 c 0.20238,4.1988 -0.12629,6.4398 -1.05789,7.213 -0.9351,0.776 -11.96302,1.1556 -35.7936,1.232 -28.24301,0.091 -34.84708,0.3714 -36.69211,1.5601 -2.20312,1.4194 -2.25,1.8442 -2.25,20.3914 0,17.7037 0.12643,19.0094 1.93426,19.9769 1.21413,0.6498 13.48701,1.0352 32.96481,1.0352 30.48435,0 31.05031,0.037 32.1527,2.0967 1.76516,3.2983 0.2305,13.6819 -2.21561,14.991 -1.33008,0.7118 -11.28825,0.8258 -30.8798,0.3534 -25.94118,-0.6254 -29.17594,-0.5272 -31.4365,0.9539 L 358,1771.0461 v 17.7544 c 0,14.4507 0.28967,18.1681 1.5567,19.977 l 1.55671,2.2225 h 35.82085 c 28.46638,0 36.04598,0.2713 36.91736,1.3212 1.2642,1.5233 0.43373,11.4683 -1.12252,13.4421 -1.5111,1.9165 -92.65998,1.7389 -95.29207,-0.1857 z m 180.29038,-0.3276 c -0.87042,-0.9625 -4.13286,-7.8083 -7.24989,-15.2128 -3.11702,-7.4045 -6.49588,-15.2795 -7.50857,-17.5 -12.28372,-26.9337 -30.02527,-67.7854 -38.00611,-87.5127 -2.79257,-6.9028 -3.54621,-9.8216 -2.77567,-10.75 1.3258,-1.5975 15.08143,-1.7363 17.98661,-0.1815 1.12326,0.6012 3.59475,4.5387 5.4922,8.75 1.89745,4.2114 3.86026,8.557 4.3618,9.657 0.50155,1.1 2.31009,5.6 4.01899,10 1.7089,4.4 5.72087,13.85 8.91549,21 7.49384,16.7722 14.35294,33.5454 16.56182,40.5 2.58167,8.1283 4.27296,11 6.47855,11 2.54487,0 4.38138,-2.9293 7.92649,-12.6432 1.59662,-4.3748 4.46983,-11.3073 6.38489,-15.4055 4.99549,-10.6903 11.69849,-25.7775 20.73821,-46.6779 9.72557,-22.4862 11.43418,-25.8623 13.48697,-26.6501 2.5998,-0.9976 20.28392,-0.7185 20.93217,0.3304 0.32417,0.5245 -2.41347,6.937 -6.08364,14.25 -11.89168,23.6947 -30.86124,64.7563 -49.10654,106.2963 -5.06634,11.5348 -6.17059,12.5 -14.30051,12.5 -5.08349,0 -7.04725,-0.4164 -8.25326,-1.75 z M 632,1826.2711 c -0.825,-0.314 -1.83061,-1.066 -2.23469,-1.671 -0.40408,-0.6051 -0.74158,-29.7555 -0.75,-64.7787 -0.0136,-56.5696 0.16012,-63.854 1.55612,-65.25 1.16313,-1.1631 3.62234,-1.5714 9.46481,-1.5714 6.74076,0 8.04238,0.2784 8.91367,1.9064 0.67045,1.2527 0.93967,23.8952 0.78518,66.0368 -0.20434,55.7433 -0.43126,64.2543 -1.73509,65.0782 -1.60455,1.014 -13.5043,1.1997 -16,0.2497 z m 69.44825,-0.6865 c -1.27458,-0.933 -1.54259,-10.1347 -1.91727,-65.8249 -0.43101,-64.062 -0.4145,-64.7517 1.57567,-65.8168 1.36801,-0.7321 13.58573,-0.9565 38.20229,-0.7016 34.11202,0.3532 36.4964,0.497 41.50633,2.5043 19.05568,7.635 29.66237,24.7683 27.87827,45.0328 -1.24779,14.1728 -5.86361,22.3733 -17.81924,31.6577 -4.41059,3.4251 -5.8743,5.191 -5.8743,7.0871 0,2.8429 11.19931,24.9256 16.94818,33.4182 5.61695,8.2977 7.39739,12.113 6.2078,13.3026 -0.60536,0.6054 -4.54352,0.829 -9.76895,0.5547 -8.64923,-0.4539 -8.79365,-0.5045 -11.98549,-4.1969 -3.38789,-3.9192 -13.80477,-20.7588 -19.34026,-31.2648 -5.74011,-10.8944 -5.48941,-10.7849 -25.55832,-11.1684 C 718.23581,1779.724 720,1777.7257 720,1804.5248 v 20.5247 l -2.68538,1.021 c -3.37193,1.282 -13.89136,0.9599 -15.86637,-0.4859 z m 53.15653,-61.5767 c 17.27455,-1.3291 18.38903,-1.5685 23.71087,-5.0936 6.55801,-4.3438 10.1007,-11.8179 10.12256,-21.3557 0.009,-3.8823 -0.59037,-8.8049 -1.33171,-10.9393 -1.91555,-5.5151 -7.26714,-11.0012 -13.36486,-13.7008 -4.86604,-2.1543 -6.85924,-2.3495 -27.81595,-2.7238 -20.12324,-0.3594 -22.75625,-0.2213 -24.25,1.2725 -1.46768,1.4676 -1.67569,4.4517 -1.67569,24.0391 0,21.7406 0.60533,26.9866 3.31256,28.708 1.667,1.06 16.06676,0.965 31.29222,-0.2064 z m 85.45226,62.0485 c -1.19952,-0.7589 -0.53378,-3.1604 3.94619,-14.2347 2.96403,-7.3269 8.7074,-20.2967 12.76305,-28.8217 4.05564,-8.525 8.88877,-19.1487 10.74027,-23.6082 1.85151,-4.4595 5.01659,-11.6595 7.03351,-16 2.01692,-4.3405 7.44831,-16.3494 12.06975,-26.6865 11.38687,-25.4697 9.93509,-23.7053 19.5052,-23.7053 9.25894,0 10.53931,0.8533 13.70792,9.1352 3.52805,9.2214 8.61635,20.735 17.1759,38.8648 4.54421,9.625 11.54421,25.15 15.55555,34.5 4.01134,9.35 8.86428,20.15 10.78433,24 5.21203,10.451 9.80013,22.5268 9.46102,24.9012 -0.26998,1.8905 -1.05233,2.1275 -7.88194,2.3878 -11.61551,0.4428 -11.75152,0.3347 -17.95059,-14.273 -3.27829,-7.7252 -6.17198,-13.122 -7.42054,-13.8396 -3.13818,-1.8038 -64.66635,-1.6521 -66.85539,0.1648 -1.94453,1.6139 -9.1246,14.7036 -11.87533,21.6494 -1.08702,2.7448 -2.5028,5.3254 -3.14617,5.7347 -1.66624,1.0599 -15.88606,0.9236 -17.61273,-0.1689 z m 89.0087,-46.0916 c 2.87056,-1.5363 2.42558,-5.7505 -1.56574,-14.8284 -1.925,-4.3782 -3.5,-8.2342 -3.5,-8.5689 0,-0.5958 -12.36395,-28.6771 -13.86948,-31.5007 -2.66696,-5.0017 -6.099,-3.4298 -9.59165,4.3932 -1.23761,2.772 -3.17533,7.065 -4.30605,9.54 -1.13073,2.475 -3.19259,7.2 -4.58193,10.5 -1.38934,3.3 -4.10072,9.6696 -6.02529,14.1547 -1.92457,4.4851 -3.80203,9.7689 -4.17213,11.7417 -0.59065,3.1484 -0.38444,3.7024 1.68681,4.5318 3.27559,1.3118 43.48294,1.3438 45.92546,0.037 z M 1074,1826.0212 c -1.3083,-0.827 -1.5,-9.2667 -1.5,-66.0212 0,-56.728 0.1924,-65.2022 1.5,-66.0807 0.825,-0.5543 3.9295,-0.8328 6.8989,-0.6189 4.6937,0.338 5.7694,0.8337 8.234,3.7942 3.0136,3.6198 14.2833,22.0862 20.0816,32.9054 7.1302,13.3043 15.0649,27.578 16.6771,30 0.9152,1.375 3.2076,5.875 5.0942,10 1.8866,4.125 4.4865,8.965 5.7774,10.7556 3.2819,4.5521 5.2136,3.1941 10.7344,-7.5464 2.4622,-4.79 8.089,-15.2342 12.504,-23.2092 4.415,-7.975 11.1532,-20.575 14.9738,-28 9.7931,-19.0323 14.254,-26.2934 17.0765,-27.7958 2.8619,-1.5234 13.5603,-0.9917 15.3138,0.761 0.8164,0.8162 1.2105,19.1242 1.4061,65.3318 0.3083,72.8231 1.0734,66.703 -8.3379,66.703 -2.8512,0 -6.5901,-0.2812 -8.3089,-0.625 l -3.125,-0.625 -0.014,-38.625 c -0.01,-21.2437 -0.2768,-39.6064 -0.5985,-40.8058 -0.6338,-2.3631 -2.6315,-3.5467 -4.6675,-2.7654 -0.7039,0.2701 -4.0711,5.9935 -7.4828,12.7187 -18.0332,35.5474 -29.6819,55.7771 -33.4674,58.1209 -1.4253,0.8824 -2.5865,0.2273 -6.5946,-3.7205 -5.6013,-5.5171 -10.9361,-14.228 -21.2346,-34.6729 -9.181,-18.2264 -16.4337,-30.5914 -18.3818,-31.339 -0.889,-0.3411 -2.1292,0.3149 -3.0317,1.6034 -1.3049,1.863 -1.5274,7.7267 -1.5274,40.2581 0,28.2825 -0.3087,38.3862 -1.2,39.2775 -1.4345,1.4345 -14.6063,1.6079 -16.8,0.2212 z m 170.148,0.091 c -1.6727,-1.0599 1.3682,-8.1717 28.9102,-67.6126 5.6065,-12.1 11.65,-25.375 13.4299,-29.5 1.7799,-4.125 5.0358,-11.1 7.2353,-15.5 2.1996,-4.4 4.5373,-9.6594 5.1948,-11.6875 0.6576,-2.0282 2.1027,-4.8407 3.2113,-6.25 1.8312,-2.328 2.6725,-2.5611 9.1931,-2.5472 3.9476,0.01 7.6794,0.3459 8.2931,0.75 1.2511,0.8239 5.3843,8.612 5.3843,10.1455 0,0.5448 2.6504,6.7502 5.8897,13.7899 8.1526,17.7169 11.8972,26.0387 14.0843,31.2993 1.029,2.475 4.8784,11.25 8.5543,19.5 3.6759,8.25 9.0662,20.85 11.9785,28 2.9122,7.15 6.6896,16.3091 8.3941,20.3536 1.7045,4.0445 3.0991,7.982 3.0991,8.75 0,1.8682 -16.8075,1.9956 -19.3081,0.1464 -0.9297,-0.6875 -3.8284,-6.65 -6.4415,-13.25 -6.5399,-16.5178 -3.776,-15.4965 -41.9446,-15.4984 -35.9635,-0 -33.0843,-1.0988 -39.3673,14.9984 -6.1335,15.714 -5.3878,15.0028 -15.7116,14.9847 -4.7998,-0.01 -9.3353,-0.4009 -10.0789,-0.8721 z m 90.5362,-47.3662 c 1.443,-1.4447 1.5577,-2.2374 0.6512,-4.5 -0.6053,-1.5105 -3.3634,-8.5964 -6.1292,-15.7464 -6.886,-17.8014 -13.6154,-32.3536 -16.119,-34.8572 -2.0769,-2.077 -2.0967,-2.0775 -4.0131,-0.115 -1.9791,2.0266 -8.1272,15.334 -15.2335,32.9722 -2.2159,5.5 -4.8865,11.9076 -5.9347,14.2391 -2.5138,5.5912 -2.4202,8.1103 0.3441,9.2662 1.2375,0.5174 11.7973,0.8404 23.4663,0.7178 18.7045,-0.1967 21.4236,-0.4307 22.9679,-1.9767 z m 78.8158,47.5405 c -1.1,-0.2646 -2.4021,-0.862 -2.8937,-1.3276 -0.5074,-0.4807 -0.8801,-28.5372 -0.8623,-64.9151 0.025,-51.531 0.2894,-64.3795 1.3501,-65.6575 1.0384,-1.2512 2.7949,-1.5057 8.2623,-1.1967 6.6523,0.3759 7.087,0.5583 10.3662,4.3512 1.8825,2.1773 6.3443,8.0088 9.9152,12.9588 3.5708,4.95 11.1915,15.075 16.9347,22.5 17.3037,22.3704 26.7389,34.989 33.8344,45.25 3.7083,5.3625 7.1036,9.75 7.5452,9.75 2.9097,0 3.1561,-3.5076 3.0821,-43.864 -0.041,-22.565 0.2125,-42.8263 0.5641,-45.0252 0.5274,-3.2981 1.1698,-4.1829 3.6697,-5.0544 4.4634,-1.5559 11.9517,-1.2912 14.5284,0.5136 l 2.2415,1.57 -0.067,63.5852 c -0.042,39.7985 -0.4362,64.2754 -1.0542,65.43 -1.0533,1.9682 -7.3354,2.5111 -13.889,1.2004 -3.9783,-0.7957 -8.6326,-6.2968 -28.6445,-33.8556 -7.9876,-11 -19.9115,-26.975 -26.4976,-35.5 -6.5861,-8.525 -12.8874,-16.9425 -14.0029,-18.7057 -2.5953,-4.102 -5.7292,-5.1918 -7.6695,-2.6669 -1.2234,1.592 -1.3472,8.3977 -0.8266,45.423 0.4672,33.221 0.3279,43.8349 -0.5872,44.75 -1.1704,1.1704 -11.1386,1.4874 -15.2996,0.4865 z m 141.8564,-0.3008 c -0.803,-0.8239 -0.8572,-2.2101 -0.182,-4.6557 0.9513,-3.4453 9.8496,-24.7664 15.5797,-37.3304 1.6304,-3.575 6.222,-14.15 10.2035,-23.5 3.9815,-9.35 7.8241,-18.125 8.5392,-19.5 0.715,-1.375 3.3264,-7.225 5.8031,-13 7.9695,-18.5828 15.5675,-33.7351 17.2375,-34.376 2.4813,-0.9521 13.3715,-0.7431 15.3092,0.2939 1.9624,1.0503 11.6604,21.4089 17.1879,36.0821 0.7252,1.925 3.0187,7.1777 5.0968,11.6727 2.078,4.4949 4.9248,10.8967 6.3261,14.2261 1.4013,3.3293 3.6305,8.4266 4.9537,11.3273 1.3232,2.9006 3.5176,7.7489 4.8765,10.7739 1.3588,3.025 4.0505,8.875 5.9815,13 7.2401,15.4665 13.7183,30.8262 13.9702,33.1233 0.2582,2.3535 0.171,2.376 -8.9271,2.3008 -5.6618,-0.047 -9.753,-0.545 -10.6605,-1.2982 -0.8099,-0.6722 -3.3823,-5.813 -5.7163,-11.424 -2.334,-5.6111 -5.3222,-11.6644 -6.6404,-13.4519 l -2.3968,-3.25 h -31.8142 c -30.6715,0 -31.9089,0.074 -34.4491,2.0726 -1.4492,1.1399 -2.6349,2.5344 -2.6349,3.0989 0,0.5644 -0.6275,2.4442 -1.3945,4.1774 -0.767,1.7331 -2.4281,6.1968 -3.6914,9.9193 -1.2632,3.7225 -3.1566,7.5462 -4.2074,8.4972 -2.3629,2.1384 -16.5367,3.0813 -18.3503,1.2207 z m 86.7093,-46.0213 c 3.0321,-1.6227 2.3761,-5.2225 -3.4372,-18.8619 -2.9543,-6.9316 -7.5322,-18.0029 -10.1731,-24.6029 -7.6102,-19.019 -9.6497,-19.9149 -15.2013,-6.6779 -10.4119,24.8256 -18.2541,44.9847 -18.2541,46.9237 0,1.4699 0.8236,2.6497 2.25,3.223 3.1895,1.2821 42.4193,1.2785 44.8157,-0 z M 1102.0181,1571.75 c 0.01,-1.2375 1.602,-6.75 3.5379,-12.25 1.9359,-5.5 5.9258,-16.975 8.8664,-25.5 8.7605,-25.397 12.0283,-33.7817 18.9022,-48.5 12.8269,-27.4646 22.4335,-45.6619 32.7304,-62 4.888,-7.7557 23.75,-34.8589 28.445,-40.8732 17.5656,-22.5014 34.2569,-40.8086 54.5,-59.7761 23.8829,-22.378 41.3894,-36.3793 64.3329,-51.4521 7.2419,-4.7575 14.3545,-9.4699 15.8058,-10.472 16.3266,-11.2728 62.2646,-34.4658 90.3613,-45.6214 43.7899,-17.3863 94.3481,-31.5755 129.5,-36.3441 4.675,-0.6342 11.8106,-1.7849 15.857,-2.5571 4.0463,-0.7722 9.4463,-1.4067 12,-1.4099 2.5536,-0 8.918,-0.6341 14.143,-1.402 5.225,-0.7678 16.475,-1.5526 25,-1.7441 l 15.5,-0.348 -0.2767,2.4675 c -0.5872,5.2353 -21.4295,45.6764 -33.9516,65.8774 -6.793,10.9588 -8.9018,14.5289 -13.4734,22.8104 -5.6549,10.2438 -29.7671,45.3665 -44.1735,64.3447 -25.7064,33.8643 -39.305,49.6459 -60.7479,70.5 -34.1412,33.2038 -63.4461,56.2998 -93.0857,73.3636 -42.8171,24.6503 -69.6788,35.4205 -108.7912,43.62 -20.3631,4.2689 -22.8313,4.5774 -60.5,7.5617 -23.7819,1.8841 -47.3713,5.9623 -57.4373,9.93 -8.3788,3.3026 -16.8818,7.8818 -27.0696,14.578 -7.3554,4.8345 -11.9075,8.8616 -19.0769,16.8767 -5.1789,5.7899 -9.7537,10.5367 -10.1662,10.5485 -0.4125,0.012 -0.7419,-0.991 -0.7319,-2.2285 z m -5.364,-90.75 c -0.3065,-0.825 -0.7442,-13.425 -0.9725,-28 -0.4304,-27.4669 -1.9632,-88.8914 -3.7307,-149.5 -0.9065,-31.0817 -1.9174,-57.2842 -3.4337,-89 -0.263,-5.5 -0.7617,-35.1427 -1.1083,-65.8726 -0.5249,-46.5402 -0.4029,-56.0166 0.7305,-56.7347 2.1171,-1.3414 14.0824,-1.0456 25.2323,0.6237 11.8045,1.7673 29.4509,5.9062 30.7592,7.2145 0.5405,0.5405 0.4507,6.9229 -0.223,15.8372 -0.6206,8.2126 -1.1913,30.9069 -1.2681,50.4319 -0.1545,39.2329 -0.3781,37.6727 6.5273,45.5376 5.446,6.2026 5.7473,6.2585 35.6977,6.6268 26.0731,0.3206 27.3588,0.2487 28.7152,-1.6055 1.4758,-2.0174 1.8544,-8.1369 0.8227,-13.2955 -1.1327,-5.6633 -7.3211,-12.3029 -15.4027,-16.5257 -10.1071,-5.2812 -11,-6.1982 -11,-11.2959 0,-7.8544 11.8484,-38.4418 14.891,-38.4418 0.8927,0 13.3804,11.8125 27.7504,26.25 18.1966,18.282 29.0345,30.0777 35.705,38.8601 5.2678,6.9356 10.708,13.3508 12.0895,14.2559 5.1345,3.3643 13.4134,4.634 30.2152,4.634 8.9874,0 16.4887,0.4172 16.8086,0.9348 0.8242,1.3336 -4.0967,4.7314 -18.9597,13.0916 -25.3105,14.2367 -50.329,31.5712 -75.5101,52.3184 -10.4865,8.64 -41.6813,40.1014 -53.2006,53.6552 -31.9164,37.5534 -55.8481,77.7297 -73.2672,123 -7.4691,19.4115 -7.1933,18.8156 -7.868,17 z m 251.4993,-279.8635 c -4.389,-8.2347 -7.2986,-10.3731 -17.768,-13.0588 -12.7845,-3.2795 -13.9634,-3.844 -17.6193,-8.4358 -10.9967,-13.8121 -35.2488,-53.6836 -45.7057,-75.1419 -10.2997,-21.1359 -13.4837,-28.8892 -15.5856,-37.9525 -1.8334,-7.9055 -1.2661,-11.9082 2.538,-17.9066 4.1358,-6.5216 10.4173,-10.3521 21.7592,-13.2694 8.8398,-2.2736 11.1889,-2.4674 25.728,-2.1227 12.5299,0.2971 16.9253,0.77 20.2663,2.1804 5.1014,2.1535 10.7464,8.3032 15.0728,16.4203 3.4611,6.4936 4.4057,7.1505 10.2825,7.1505 4.9828,0 9.9602,-2.6317 16.5042,-8.7262 7.7908,-7.2557 8.8072,-9.3386 8.5276,-17.4752 -0.3988,-11.6037 0.5767,-12.5845 8.2536,-8.2986 6.998,3.9069 10.5274,3.4081 16.4071,-2.319 6.0335,-5.8767 6.9804,-9.2291 4.6415,-16.4327 -2.2129,-6.8153 -8.7866,-19.63875 -14.014,-27.3372 -2.3439,-3.45187 -4.4207,-7.87864 -4.7953,-10.22143 -0.78,-4.87796 -6.9248,-12.92119 -13.9036,-18.19909 -5.9528,-4.50202 -21.3823,-12.21504 -29.7427,-14.8681 -18.9167,-6.00293 -42.525,-9.11905 -91.5,-12.07735 -12.1282,-0.73259 -15.3983,-1.32381 -24.458,-4.42196 -20.4342,-6.98791 -35.6543,-8.31312 -47.542,-4.13946 -7.1942,2.52579 -17.0545,9.19864 -26.652,18.03625 -4.5914,4.22793 -9.5254,8.29604 -10.9646,9.04026 -3.9841,2.06037 -13.8267,3.38587 -30.3894,4.09252 -12.3069,0.52508 -15.2176,0.38518 -16.1828,-0.7778 -1.1543,-1.39082 -2.3808,-28.74374 -3.8283,-85.37494 -0.3233,-12.65 -0.9932,-28.4 -1.4887,-35 -0.4954,-6.6 -1.152,-20.325 -1.4591,-30.5 -0.307,-10.175 -0.998,-25.7 -1.5355,-34.5 -1.5289,-25.0316 -3.0408,-54.93706 -4.0344,-79.80177 -0.5011,-12.54097 -1.167,-23.21578 -1.4798,-23.72179 -0.3127,-0.50602 -0.9862,-12.52022 -1.4966,-26.69823 -0.5104,-14.17802 -1.366,-32.97821 -1.9013,-41.77821 -0.5354,-8.8 -1.2342,-23.65 -1.553,-33 -0.3188,-9.35 -0.7833,-19.25 -1.0321,-22 -0.2488,-2.75 -0.7219,-9.70429 -1.0514,-15.45397 -0.3294,-5.74968 -1.0894,-11.37043 -1.6889,-12.49054 -1.6283,-3.04254 -1.6581,-3.70403 -2.2305,-49.55549 -0.9278,-74.32235 -2.3862,-127.4752 -3.5842,-130.63337 -1.1458,-3.02058 1.8922,-8.773 4.855,-9.19305 1.7739,-0.25148 3.8686,1.35563 9.1238,7 24.97,26.8191 70.1302,89.4987 90.2969,125.32642 3.0958,5.5 7.0234,12.475 8.7279,15.5 8.6375,15.32905 24.7636,49.1281 34.3524,72 9.456,22.55493 23.904,64.82371 28.7123,84 1.1722,4.675 2.8002,10.75 3.6176,13.5 2.2414,7.54026 3.0045,10.64382 6.7624,27.5 7.083,31.77193 8.5781,39.73377 13.1446,70 0.8713,5.775 2.029,12.75 2.5727,15.5 0.5437,2.75 1.6571,10.4 2.4743,17 0.8171,6.6 1.9366,13.6875 2.4878,15.75 1.5735,5.88899 4.6382,5.18205 12.2093,-2.81641 8.5177,-8.99841 37.0477,-35.37774 49.2156,-45.50553 5.5,-4.57785 13.825,-11.53589 18.5,-15.46231 9.8705,-8.28996 40.8431,-31.51487 52.4909,-39.36041 15.9752,-10.76038 24.6437,-15.85749 53.9094,-31.69907 20.5824,-11.14132 25.9799,-13.43756 27.6368,-11.75743 1.4976,1.51863 12.5284,32.43468 17.2516,48.35116 6.7497,22.74581 12.6612,46.83462 14.7241,60 0.474,3.025 1.7405,10.45 2.8146,16.5 9.3543,52.69382 12.1644,104.48706 8.6536,159.5 -1.3266,20.78748 -4.7699,49.99671 -7.4267,63 -0.5057,2.475 -1.6544,8.775 -2.5527,14 -7.4009,43.049 -23.9337,102.1542 -39.6917,141.8996 -2.7039,6.8198 -5.8551,15.1448 -7.0026,18.5 -1.1475,3.3552 -3.3735,8.6749 -4.9467,11.8216 -2.8468,5.6942 -2.8944,5.7311 -10.1104,7.8437 -12.9566,3.7931 -29.8976,9.0336 -47.2502,14.6161 -9.35,3.0081 -20.6,6.6225 -25,8.032 -4.4,1.4095 -12.275,4.2684 -17.5,6.3532 -15.0318,5.9975 -14.1294,6.0445 -17.8466,-0.9297 z"
         id="path2" />
    </g>
  </g>
</svg>
